<mxfile host="app.diagrams.net" modified="2024-06-09T14:53:55.479Z" agent="Mozilla/5.0 (Windows NT 10.0; Win64; x64) AppleWebKit/537.36 (KHTML, like Gecko) Chrome/125.0.0.0 Safari/537.36" etag="cS46Mz_AqmekRRhYy5T1" version="24.4.13" type="device">
  <diagram name="Halaman-1" id="S7_zR6xr3_-PQHlOanxi">
    <mxGraphModel dx="794" dy="459" grid="1" gridSize="10" guides="1" tooltips="1" connect="1" arrows="1" fold="1" page="1" pageScale="1" pageWidth="827" pageHeight="1169" math="0" shadow="0">
      <root>
        <mxCell id="0" />
        <mxCell id="1" parent="0" />
        <mxCell id="U4t8cELtIiDhtRv3Twbf-9" style="edgeStyle=orthogonalEdgeStyle;rounded=0;orthogonalLoop=1;jettySize=auto;html=1;exitX=0.5;exitY=1;exitDx=0;exitDy=0;entryX=0.5;entryY=0;entryDx=0;entryDy=0;" edge="1" parent="1" source="U4t8cELtIiDhtRv3Twbf-1" target="U4t8cELtIiDhtRv3Twbf-2">
          <mxGeometry relative="1" as="geometry" />
        </mxCell>
        <mxCell id="U4t8cELtIiDhtRv3Twbf-1" value="Input gambar asli dengan pesan Stegano" style="rounded=0;whiteSpace=wrap;html=1;" vertex="1" parent="1">
          <mxGeometry x="260" y="30" width="120" height="60" as="geometry" />
        </mxCell>
        <mxCell id="U4t8cELtIiDhtRv3Twbf-10" style="edgeStyle=orthogonalEdgeStyle;rounded=0;orthogonalLoop=1;jettySize=auto;html=1;exitX=0.5;exitY=1;exitDx=0;exitDy=0;entryX=0.5;entryY=0;entryDx=0;entryDy=0;" edge="1" parent="1" source="U4t8cELtIiDhtRv3Twbf-2" target="U4t8cELtIiDhtRv3Twbf-3">
          <mxGeometry relative="1" as="geometry" />
        </mxCell>
        <mxCell id="U4t8cELtIiDhtRv3Twbf-2" value="Penyisipan pesan" style="rounded=0;whiteSpace=wrap;html=1;" vertex="1" parent="1">
          <mxGeometry x="260" y="110" width="120" height="60" as="geometry" />
        </mxCell>
        <mxCell id="U4t8cELtIiDhtRv3Twbf-11" style="edgeStyle=orthogonalEdgeStyle;rounded=0;orthogonalLoop=1;jettySize=auto;html=1;exitX=0.5;exitY=1;exitDx=0;exitDy=0;" edge="1" parent="1" source="U4t8cELtIiDhtRv3Twbf-3" target="U4t8cELtIiDhtRv3Twbf-4">
          <mxGeometry relative="1" as="geometry" />
        </mxCell>
        <mxCell id="U4t8cELtIiDhtRv3Twbf-3" value="Transformasi DCT" style="rounded=0;whiteSpace=wrap;html=1;" vertex="1" parent="1">
          <mxGeometry x="260" y="190" width="120" height="60" as="geometry" />
        </mxCell>
        <mxCell id="U4t8cELtIiDhtRv3Twbf-12" style="edgeStyle=orthogonalEdgeStyle;rounded=0;orthogonalLoop=1;jettySize=auto;html=1;exitX=0.5;exitY=1;exitDx=0;exitDy=0;entryX=0.5;entryY=0;entryDx=0;entryDy=0;" edge="1" parent="1" source="U4t8cELtIiDhtRv3Twbf-4" target="U4t8cELtIiDhtRv3Twbf-5">
          <mxGeometry relative="1" as="geometry" />
        </mxCell>
        <mxCell id="U4t8cELtIiDhtRv3Twbf-4" value="Penghapusan koefisien kecil (treshold)" style="rounded=0;whiteSpace=wrap;html=1;" vertex="1" parent="1">
          <mxGeometry x="260" y="270" width="120" height="60" as="geometry" />
        </mxCell>
        <mxCell id="U4t8cELtIiDhtRv3Twbf-13" style="edgeStyle=orthogonalEdgeStyle;rounded=0;orthogonalLoop=1;jettySize=auto;html=1;exitX=0.5;exitY=1;exitDx=0;exitDy=0;entryX=0.5;entryY=0;entryDx=0;entryDy=0;" edge="1" parent="1" source="U4t8cELtIiDhtRv3Twbf-5" target="U4t8cELtIiDhtRv3Twbf-6">
          <mxGeometry relative="1" as="geometry" />
        </mxCell>
        <mxCell id="U4t8cELtIiDhtRv3Twbf-5" value="Transformasi IDCT" style="rounded=0;whiteSpace=wrap;html=1;" vertex="1" parent="1">
          <mxGeometry x="260" y="350" width="120" height="60" as="geometry" />
        </mxCell>
        <mxCell id="U4t8cELtIiDhtRv3Twbf-14" style="edgeStyle=orthogonalEdgeStyle;rounded=0;orthogonalLoop=1;jettySize=auto;html=1;exitX=0.5;exitY=1;exitDx=0;exitDy=0;entryX=0.5;entryY=0;entryDx=0;entryDy=0;" edge="1" parent="1" source="U4t8cELtIiDhtRv3Twbf-6" target="U4t8cELtIiDhtRv3Twbf-7">
          <mxGeometry relative="1" as="geometry" />
        </mxCell>
        <mxCell id="U4t8cELtIiDhtRv3Twbf-6" value="Gambar terkompresi dengan pesan&amp;nbsp;" style="rounded=0;whiteSpace=wrap;html=1;" vertex="1" parent="1">
          <mxGeometry x="260" y="430" width="120" height="60" as="geometry" />
        </mxCell>
        <mxCell id="U4t8cELtIiDhtRv3Twbf-15" style="edgeStyle=orthogonalEdgeStyle;rounded=0;orthogonalLoop=1;jettySize=auto;html=1;exitX=0.5;exitY=1;exitDx=0;exitDy=0;entryX=0.5;entryY=0;entryDx=0;entryDy=0;" edge="1" parent="1" source="U4t8cELtIiDhtRv3Twbf-7" target="U4t8cELtIiDhtRv3Twbf-8">
          <mxGeometry relative="1" as="geometry" />
        </mxCell>
        <mxCell id="U4t8cELtIiDhtRv3Twbf-7" value="Ekstraksi pesan" style="rounded=0;whiteSpace=wrap;html=1;" vertex="1" parent="1">
          <mxGeometry x="260" y="510" width="120" height="60" as="geometry" />
        </mxCell>
        <mxCell id="U4t8cELtIiDhtRv3Twbf-8" value="Pesan yang diekstraksi" style="rounded=0;whiteSpace=wrap;html=1;" vertex="1" parent="1">
          <mxGeometry x="260" y="590" width="120" height="60" as="geometry" />
        </mxCell>
      </root>
    </mxGraphModel>
  </diagram>
</mxfile>
